<svg preserveAspectRatio="none" data-bbox="32.351 33.259 136.298 134.482" xmlns="http://www.w3.org/2000/svg" viewBox="32.351 33.259 136.298 134.482" role="presentation" aria-hidden="true" aria-label="">
    <g>
        <path fill-rule="evenodd" clip-rule="evenodd" d="M168.282 88.417c-1.487-7.768-7.206-13.734-14.387-16.027 1.973-7.113-.004-15.049-5.851-20.522-6.282-5.88-15.266-7.267-22.797-4.25-2.558-7.58-9.47-13.383-18.104-14.249-8.039-.806-15.465 2.876-19.69 8.971-6.441-3.869-14.777-4.261-21.758-.321S54.908 53.202 55.136 60.578c-7.523.535-14.498 4.98-17.787 12.179-3.291 7.198-2.039 15.27 2.554 21.145-5.763 4.735-8.746 12.343-7.104 20.082 1.641 7.74 7.479 13.595 14.707 15.75-1.831 7.15.304 15.046 6.259 20.408 5.955 5.362 14.174 6.789 21.306 4.411 2.795 6.865 9.241 12.073 17.262 13.032 8.019.959 15.52-2.58 19.868-8.592 6.364 3.991 14.689 4.543 21.748.74 7.058-3.805 11.009-10.974 10.93-18.353 7.533-.39 14.596-4.701 18.03-11.834 3.434-7.133 2.344-15.226-2.131-21.187 5.856-4.625 8.991-12.173 7.504-19.942"></path>
    </g>
</svg>