<svg preserveAspectRatio="none" data-bbox="23 36.5 154.001 127" xmlns="http://www.w3.org/2000/svg" width="200" height="200" viewBox="23 36.5 154.001 127" data-type="shape" role="presentation" aria-hidden="true" aria-label="">
    <g>
        <path d="M100 163.5c11.379 0 21.101-9.381 25.041-22.631 3.939 13.251 13.662 22.631 25.041 22.631 14.866 0 26.919-16.003 26.919-35.745 0-11.205-3.885-21.201-9.961-27.755 6.075-6.554 9.96-16.55 9.96-27.755 0-19.741-12.051-35.745-26.919-35.745-11.379 0-21.101 9.381-25.041 22.631C121.102 45.88 111.379 36.5 100 36.5s-21.101 9.381-25.041 22.631C71.021 45.88 61.298 36.5 49.919 36.5 35.052 36.5 23 52.503 23 72.245 23 83.45 26.885 93.446 32.961 100 26.885 106.554 23 116.55 23 127.755c0 19.741 12.051 35.745 26.919 35.745 11.379 0 21.101-9.381 25.041-22.631C78.899 154.119 88.621 163.5 100 163.5z"></path>
    </g>
</svg>