<svg preserveAspectRatio="none" data-bbox="28 24.999 144 150.001" xmlns="http://www.w3.org/2000/svg" width="200" height="200" viewBox="28 24.999 144 150.001" data-type="shape" role="presentation" aria-hidden="true" aria-label="">
    <g>
        <path d="M172 86.819l-46.989-61.676s-31.074-3.807-46.99 27.793c-.932 1.85-1.626 3.726-2.214 5.725-.964 3.276-1.654 6.637-2.275 9.993-1.13 6.107-1.005 12.012-3.94 17.646-1.755 3.367-4.044 6.443-6.661 9.182-3.794 3.971-8.302 7.206-13.148 9.755-3.189 1.677-6.531 3.053-9.949 4.181-1.35.445-11.075 3.889-11.834 2.911l48.505 62.437c.548.706 5.841-.4 6.573-.505 5.249-.743 10.426-2.197 15.248-4.418 16.168-7.451 23.967-22.357 25.979-39.602 1.15-9.857 4.9-19.065 11.596-26.526 3.958-4.41 8.776-7.969 14.055-10.622 1.924-.968 22.044-7.3 22.044-6.274z"></path>
    </g>
</svg>