<svg data-bbox="19.999 19.999 160.001 160.001" viewBox="0 0 200 200" height="200" width="200" xmlns="http://www.w3.org/2000/svg" data-type="shape">
    <g>
        <path d="M115.021 128.21c-13.137 0-26.119-5.966-34.578-17.275a5.792 5.792 0 0 1 1.169-8.109 5.792 5.792 0 0 1 8.108 1.169c10.413 13.922 30.215 16.78 44.132 6.363a31.285 31.285 0 0 0 3.412-2.957l22.392-22.394c12.006-12.433 11.659-32.435-.844-44.513a31.404 31.404 0 0 0-43.805 0L102.228 53.2a5.794 5.794 0 0 1-8.167-8.218l12.838-12.764c16.857-16.282 43.169-16.282 59.961-.059 17.097 16.516 17.573 43.866 1.06 60.968l-22.463 22.466a43.137 43.137 0 0 1-4.668 4.044 42.874 42.874 0 0 1-25.768 8.573z"></path>
        <path d="M63.086 180c-10.775.002-21.535-4.054-29.925-12.156-8.284-8.002-12.954-18.751-13.155-30.265-.201-11.517 4.096-22.419 12.097-30.704l22.461-22.466a43.052 43.052 0 0 1 4.663-4.042c19.041-14.244 46.108-10.338 60.35 8.698a5.792 5.792 0 1 1-9.277 6.94c-10.411-13.922-30.21-16.77-44.132-6.363a31.326 31.326 0 0 0-3.408 2.955l-22.397 22.399c-5.78 5.986-8.922 13.959-8.776 22.379.146 8.423 3.564 16.282 9.621 22.132a31.407 31.407 0 0 0 43.805 0l12.692-12.693a5.79 5.79 0 0 1 8.192 0 5.796 5.796 0 0 1 0 8.193l-12.763 12.765C84.693 175.926 73.883 180 63.086 180z"></path>
    </g>
</svg>